#!OML:ASF Y:\EmotionMaleHayes\Project 1\Capture day 1\Session 1\Male1.ASF
:FULLY-SPECIFIED
:DEGREES
107
root -28.0459 16.5108 1.82941 -55.0513 85.1577 -58.0959
lowerback 11.9864 1.72541 2.44308
upperback 3.78588 2.82774 2.56366
thorax -2.76721 1.46872 0.888573
lowerneck -19.9029 2.62448 5.75561
upperneck 23.3423 2.87182 -3.09373
head 10.9728 1.50563 -1.63446
rclavicle -2.20651e-014 -3.49861e-014
rhumerus -41.2186 23.4685 -86.8861
rradius 45.5487
rwrist -8.79226
rhand -10.9974 -34.0117
rfingers 7.12502
rthumb 15.023 -63.4467
lclavicle -2.20651e-014 -3.49861e-014
lhumerus -42.0086 -19.8173 92.8897
lradius 47.4491
lwrist 7.39421
lhand -26.6237 -32.2491
lfingers 7.12502
lthumb -0.056664 -2.2694
rfemur 5.86191 -3.88051 19.8063
rtibia 13.6344
rfoot -28.4567 -3.88953
rtoes -6.39369
lfemur -10.8626 7.6444 -5.16139
ltibia 43.2192
lfoot -22.3707 7.56385
ltoes -5.9906
108
root -27.9962 16.505 1.83017 -60.3059 84.9027 -63.1362
lowerback 12.6374 1.71521 3.06159
upperback 4.03063 2.93769 2.73789
thorax -2.84437 1.53257 0.690004
lowerneck -19.8442 2.46757 5.67415
upperneck 23.0897 2.66362 -3.07765
head 10.8554 1.40199 -1.64606
rclavicle 3.77691e-015 2.06736e-014
rhumerus -40.1773 22.9847 -86.4495
rradius 44.68
rwrist -7.92973
rhand -11.1934 -33.8727
rfingers 7.12502
rthumb 14.8342 -63.3217
lclavicle 3.77691e-015 2.06736e-014
lhumerus -41.8052 -18.3784 92.8319
lradius 46.743
lwrist 7.42248
lhand -25.7943 -31.8355
lfingers 7.12502
lthumb 0.744461 -1.85707
rfemur 6.45734 -3.75253 20.4297
rtibia 13.4043
rfoot -28.6652 -4.26791
rtoes -6.19214
lfemur -12.2206 8.24769 -4.8763
ltibia 44.9888
lfoot -22.0318 6.72601
ltoes -7.0281
109
root -27.9431 16.4931 1.8241 -63.9279 84.678 -67.061
lowerback 12.7045 1.73135 3.57773
upperback 4.15873 3.04021 2.91547
thorax -2.72887 1.5912 0.571756
lowerneck -19.8739 2.3394 5.47955
upperneck 22.914 2.51682 -3.01362
head 10.7846 1.32219 -1.61175
rclavicle 2.68359e-014 1.74931e-014
rhumerus -39.1584 22.5582 -86.0716
rradius 43.8236
rwrist -7.13471
rhand -11.654 -33.9812
rfingers 7.12502
rthumb 14.3904 -63.4624
lclavicle 2.68359e-014 1.74931e-014
lhumerus -41.6335 -16.947 92.9894
lradius 45.8631
lwrist 6.83574
lhand -26.3681 -31.2153
lfingers 7.12502
lthumb 0.190233 -1.23563
rfemur 6.45088 -3.55509 20.9479
rtibia 13.2109
rfoot -28.8319 -4.67474
rtoes -5.84783
lfemur -14.2376 9.01995 -4.82136
ltibia 46.6276
lfoot -21.5752 6.01609
ltoes -9.5836
110
root -27.8747 16.4917 1.81981 -69.5325 84.8507 -72.9748
lowerback 12.7597 1.65429 3.77083
upperback 4.21289 2.97397 3.009
thorax -2.69825 1.56233 0.570026
lowerneck -19.7765 2.28053 5.3543
upperneck 22.7081 2.46934 -3.00652
head 10.6858 1.28815 -1.59485
rclavicle -3.27995e-014 -3.1408e-014
rhumerus -38.2124 22.0759 -85.8093
rradius 42.9215
rwrist -6.53315
rhand -12.0134 -34.1799
rfingers 7.12502
rthumb 14.0441 -63.6854
lclavicle -3.27995e-014 -3.1408e-014
lhumerus -41.6634 -15.3865 93.0598
lradius 44.9765
lwrist 6.21152
lhand -26.9823 -30.7154
lfingers 7.12502
lthumb -0.40298 -0.736065
rfemur 6.72388 -3.49096 21.1104
rtibia 12.6722
rfoot -28.9098 -5.40042
rtoes -6.3777
lfemur -16.2865 9.40734 -5.25433
ltibia 47.9849
lfoot -21.1433 5.12684
ltoes -12.017
111
root -27.8075 16.4925 1.81569 -70.479 84.9299 -74.3142
lowerback 12.8203 1.73761 3.81657
upperback 4.20228 3.09527 3.03025
thorax -2.73917 1.62197 0.546451
lowerneck -19.6815 2.24606 5.36305
upperneck 22.5315 2.44964 -3.13075
head 10.6036 1.26298 -1.64353
rclavicle 2.52457e-014 4.21423e-014
rhumerus -37.0956 21.3331 -85.5263
rradius 41.845
rwrist -5.56072
rhand -12.0029 -34.2686
rfingers 7.12502
rthumb 14.0542 -63.7735
lclavicle 2.52457e-014 4.21423e-014
lhumerus -41.6409 -13.8732 92.9649
lradius 44.0875
lwrist 6.51727
lhand -27.1788 -30.0514
lfingers 7.12502
lthumb -0.592743 -0.072455
rfemur 6.72511 -3.15857 21.2227
rtibia 12.3309
rfoot -28.9813 -5.89796
rtoes -6.43448
lfemur -18.2129 10.008 -5.79227
ltibia 48.913
lfoot -20.9007 4.18767
ltoes -12.2324
112
root -27.7354 16.486 1.80853 -72.1404 85.3391 -76.5505
lowerback 12.628 1.8262 3.68789
upperback 4.13241 3.17712 2.93459
thorax -2.70798 1.65942 0.512664
lowerneck -19.7604 2.03649 5.154
upperneck 22.5222 2.22028 -3.14479
head 10.6008 1.13764 -1.64768
rclavicle 9.34288e-015 4.13472e-014
rhumerus -36.161 20.3414 -85.2593
rradius 40.9893
rwrist -4.2614
rhand -12.1292 -34.3593
rfingers 7.12502
rthumb 13.9325 -63.8725
lclavicle 9.34288e-015 4.13472e-014
lhumerus -41.6683 -12.7541 93.0447
lradius 43.0262
lwrist 6.61874
lhand -27.0977 -29.1438
lfingers 7.12502
lthumb -0.514458 0.835338
rfemur 6.61584 -3.0898 20.881
rtibia 11.9411
rfoot -29.0493 -6.16469
rtoes -6.08893
lfemur -20.3529 10.3647 -6.77453
ltibia 49.5054
lfoot -20.7401 3.52754
ltoes -11.4108
113
root -27.6652 16.4964 1.78871 -70.8801 85.6008 -75.5589
lowerback 12.9353 1.98072 3.70489
upperback 4.13016 3.39748 2.84929
thorax -2.86756 1.76611 0.369698
lowerneck -19.841 1.89225 5.05061
upperneck 22.4766 2.08797 -3.31201
head 10.5931 1.04617 -1.70996
rclavicle -4.21423e-014 -3.10104e-014
rhumerus -35.3722 19.4146 -85.0185
rradius 40.4208
rwrist -3.14112
rhand -12.3691 -34.2672
rfingers 7.12502
rthumb 13.7013 -63.7961
lclavicle -4.21423e-014 -3.10104e-014
lhumerus -41.6456 -11.5759 93.1497
lradius 41.759
lwrist 6.22577
lhand -28.3971 -28.3616
lfingers 7.12502
lthumb -1.76948 1.61085
rfemur 6.70339 -3.40364 20.3168
rtibia 11.7235
rfoot -29.1077 -5.71931
rtoes -5.90539
lfemur -21.9446 10.7705 -7.72037
ltibia 49.5862
lfoot -20.4895 3.49402
ltoes -11.323
114
root -27.5753 16.5103 1.78786 -83.2972 85.8949 -88.0897
lowerback 13.2183 1.77432 3.83113
upperback 4.19246 3.16438 2.86363
thorax -2.95395 1.65343 0.338946
lowerneck -20.1367 1.77526 4.92699
upperneck 22.5897 1.98649 -3.45026
head 10.6851 0.969825 -1.75498
rclavicle -4.77083e-015 2.38542e-015
rhumerus -34.5307 18.5243 -84.8694
rradius 39.8785
rwrist -2.15002
rhand -12.5714 -33.9388
rfingers 7.12502
rthumb 13.5063 -63.4808
lclavicle -4.77083e-015 2.38542e-015
lhumerus -41.6475 -10.4634 93.2496
lradius 40.4393
lwrist 6.54302
lhand -29.1718 -27.772
lfingers 7.12502
lthumb -2.51759 2.19285
rfemur 7.58113 -3.74654 20.2098
rtibia 10.8175
rfoot -29.2409 -6.05949
rtoes -5.42937
lfemur -23.492 10.3582 -8.40189
ltibia 49.4389
lfoot -20.0412 3.48529
ltoes -12.8883
115
root -27.5009 16.5093 1.77474 -75.9171 85.6017 -81.3646
lowerback 13.1378 2.07529 4.1743
upperback 4.06083 3.5979 2.84069
thorax -3.0166 1.86236 0.058606
lowerneck -20.1921 1.64911 4.85825
upperneck 22.6201 1.88462 -3.65028
head 10.7025 0.89286 -1.8314
rclavicle -2.50469e-014 -2.38542e-014
rhumerus -33.8803 17.6961 -84.9077
rradius 39.5354
rwrist -1.55832
rhand -13.0146 -33.5431
rfingers 7.12502
rthumb 13.0791 -63.113
lclavicle -2.50469e-014 -2.38542e-014
lhumerus -41.7805 -9.17705 93.0466
lradius 39.0624
lwrist 6.24534
lhand -28.7655 -27.3136
lfingers 7.12502
lthumb -2.12523 2.65556
rfemur 7.11072 -3.71124 20.3119
rtibia 10.7296
rfoot -29.2475 -5.47823
rtoes -5.82679
lfemur -25.3706 11.219 -8.67075
ltibia 49.2111
lfoot -19.9862 3.80036
ltoes -13.424
